<svg width="55" height="45" viewBox="0 0 55 45" fill="none" xmlns="http://www.w3.org/2000/svg">
<path d="M49.3494 11.2148C49.3858 11.7081 49.3858 12.1987 49.3858 12.6892C49.3858 27.7014 38.0427 45 17.3127 45C10.9261 45 4.99288 43.1365 0 39.9001C0.906778 40.0044 1.77997 40.041 2.72313 40.041C7.79715 40.0534 12.7275 38.3443 16.7194 35.1892C14.3669 35.1463 12.0864 34.3645 10.1963 32.9528C8.30625 31.5412 6.90098 29.5702 6.17672 27.3152C6.8736 27.4195 7.57327 27.49 8.30653 27.49C9.31686 27.49 10.3328 27.349 11.276 27.1037C8.72287 26.5845 6.42713 25.1905 4.77911 23.1588C3.13108 21.1271 2.2325 18.5831 2.23616 15.9595V15.8185C3.73906 16.6614 5.48265 17.1886 7.32979 17.2591C5.78236 16.2233 4.51351 14.8178 3.63646 13.1679C2.7594 11.518 2.30141 9.67507 2.30333 7.80353C2.30333 5.69478 2.86027 3.76081 3.83701 2.07493C6.66968 5.58488 10.2027 8.45635 14.2071 10.5034C18.2116 12.5504 22.5983 13.7273 27.083 13.9578C26.9095 13.1121 26.8031 12.2353 26.8031 11.3557C26.8024 9.86426 27.0935 8.38727 27.6597 7.0092C28.226 5.63112 29.0564 4.37899 30.1033 3.32436C31.1503 2.26974 32.3933 1.43331 33.7614 0.862895C35.1294 0.292479 36.5957 -0.000739698 38.0763 1.40132e-06C41.3228 1.40132e-06 44.253 1.37013 46.3128 3.58602C48.8366 3.0944 51.2569 2.16633 53.4663 0.84294C52.6251 3.46709 50.8629 5.69225 48.5098 7.10155C50.7482 6.84438 52.9358 6.25143 55 5.34238C53.4583 7.60647 51.5479 9.59188 49.3494 11.2148Z" fill="#F5F6FF"/>
</svg>
