<svg width="43" height="43" viewBox="0 0 43 43" fill="none" xmlns="http://www.w3.org/2000/svg">
<path d="M42.8615 12.6917C42.8374 10.8862 42.4989 9.09865 41.861 7.40903C41.3079 5.98384 40.463 4.68952 39.3805 3.60876C38.2979 2.52799 37.0014 1.68455 35.5739 1.13233C33.9032 0.506229 32.1382 0.167684 30.3541 0.131112C28.057 0.0286064 27.3287 0 21.4976 0C15.6665 0 14.9191 1.5985e-07 12.6388 0.131112C10.8554 0.167952 9.09129 0.506493 7.42137 1.13233C5.99359 1.68417 4.69691 2.52747 3.61429 3.60828C2.53168 4.6891 1.68697 5.98362 1.13422 7.40903C0.505816 9.07566 0.167442 10.8373 0.133718 12.6178C0.0310417 14.9134 0 15.6405 0 21.4619C0 27.2832 -1.77907e-08 28.027 0.133718 30.306C0.169536 32.0891 0.506219 33.8484 1.13422 35.5195C1.6879 36.9444 2.53324 38.2384 3.61621 39.3188C4.69919 40.3991 5.99599 41.2421 7.42376 41.7938C9.08911 42.445 10.8536 42.8078 12.6412 42.8665C14.9406 42.969 15.6689 43 21.5 43C27.3311 43 28.0785 43 30.3588 42.8665C32.1429 42.8314 33.908 42.4937 35.5786 41.8677C37.0058 41.3148 38.302 40.4711 39.3844 39.3905C40.4669 38.3098 41.312 37.0158 41.8658 35.591C42.4938 33.9223 42.8305 32.163 42.8663 30.3775C42.969 28.0842 43 27.3571 43 21.5334C42.9952 15.712 42.9952 14.973 42.8615 12.6917ZM21.4833 32.4705C15.3848 32.4705 10.4444 27.5383 10.4444 21.4499C10.4444 15.3616 15.3848 10.4294 21.4833 10.4294C24.411 10.4294 27.2188 11.5905 29.289 13.6572C31.3592 15.724 32.5222 18.5271 32.5222 21.4499C32.5222 24.3728 31.3592 27.1759 29.289 29.2427C27.2188 31.3094 24.411 32.4705 21.4833 32.4705ZM32.9616 12.5915C32.6235 12.5918 32.2886 12.5256 31.9761 12.3966C31.6637 12.2675 31.3798 12.0782 31.1407 11.8396C30.9016 11.6009 30.712 11.3174 30.5828 11.0055C30.4535 10.6936 30.3872 10.3593 30.3875 10.0217C30.3875 9.68442 30.454 9.35041 30.5833 9.03877C30.7126 8.72713 30.9022 8.44397 31.1411 8.20545C31.38 7.96694 31.6636 7.77774 31.9758 7.64865C32.2879 7.51957 32.6225 7.45313 32.9604 7.45313C33.2983 7.45313 33.6328 7.51957 33.945 7.64865C34.2571 7.77774 34.5408 7.96694 34.7797 8.20545C35.0186 8.44397 35.2081 8.72713 35.3374 9.03877C35.4667 9.35041 35.5333 9.68442 35.5333 10.0217C35.5333 11.4425 34.3823 12.5915 32.9616 12.5915Z" fill="#F5F6FF"/>
</svg>
